<svg width="65" height="57" viewBox="0 0 65 57" fill="none" xmlns="http://www.w3.org/2000/svg">
<path d="M43.7903 0.901191L60.0117 17.313C66.6628 24.0402 66.6628 34.8545 60.0117 41.5817L45.7957 55.9627C44.6153 57.1558 42.686 57.1685 41.4929 55.9881C40.2997 54.8077 40.2871 52.8783 41.4675 51.6852L55.6708 37.3042C59.9736 32.9506 59.9736 25.9568 55.6708 21.6032L39.462 5.19137C38.2816 3.99824 38.2943 2.06893 39.4874 0.888498C40.6805 -0.291935 42.6098 -0.279242 43.7903 0.913884V0.901191ZM0 25.0683V6.09256C0 2.72896 2.72896 0 6.09256 0H25.0683C27.2261 0 29.2951 0.85042 30.8182 2.37356L52.1422 23.6975C55.3154 26.8707 55.3154 32.0113 52.1422 35.1845L35.1972 52.1295C32.024 55.3027 26.8834 55.3027 23.7102 52.1295L2.38625 30.8055C0.85042 29.2824 0 27.2261 0 25.0683ZM18.2777 14.216C18.2777 13.1387 17.8498 12.1056 17.088 11.3439C16.3263 10.5822 15.2932 10.1543 14.216 10.1543C13.1387 10.1543 12.1056 10.5822 11.3439 11.3439C10.5822 12.1056 10.1543 13.1387 10.1543 14.216C10.1543 15.2932 10.5822 16.3263 11.3439 17.088C12.1056 17.8498 13.1387 18.2777 14.216 18.2777C15.2932 18.2777 16.3263 17.8498 17.088 17.088C17.8498 16.3263 18.2777 15.2932 18.2777 14.216Z" fill="black"/>
</svg>
