<svg width="65" height="61" viewBox="0 0 65 61" fill="none" xmlns="http://www.w3.org/2000/svg">
<path d="M17.1844 15.0229C25.6073 6.59999 39.2167 6.55937 47.6938 14.8875L42.1146 20.4531C41.1802 21.3875 40.9094 22.7823 41.4104 24.001C41.9115 25.2198 43.1031 26.0052 44.4167 26.0052H60.599H61.75C63.551 26.0052 65 24.5562 65 22.7552V5.42187C65 4.10833 64.2146 2.91666 62.9958 2.41562C61.7771 1.91458 60.3823 2.18541 59.4479 3.11978L53.8146 8.75312C41.9521 -2.96042 22.8448 -2.9198 11.05 8.88853C7.74583 12.1927 5.3625 16.0792 3.9 20.2364C3.10104 22.4979 4.29271 24.9625 6.54063 25.7614C8.78854 26.5604 11.2667 25.3687 12.0656 23.1208C13.1083 20.1687 14.801 17.3927 17.1844 15.0229ZM0 37.9219V38.951V39.0458V55.2552C0 56.5687 0.785417 57.7604 2.00417 58.2615C3.22292 58.7625 4.61771 58.4917 5.55208 57.5573L11.1854 51.924C23.0479 63.6375 42.1552 63.5969 53.95 51.7885C57.2542 48.4844 59.651 44.5979 61.1135 40.4542C61.9125 38.1927 60.7208 35.7281 58.4729 34.9292C56.225 34.1302 53.7469 35.3219 52.9479 37.5698C51.9052 40.5219 50.2125 43.2979 47.8292 45.6677C39.4063 54.0906 25.7969 54.1312 17.3198 45.8031L22.8854 40.2239C23.8198 39.2896 24.0906 37.8948 23.5896 36.676C23.0885 35.4573 21.8969 34.6719 20.5833 34.6719H4.3875H4.29271H3.25C1.44896 34.6719 0 36.1208 0 37.9219Z" fill="black"/>
</svg>
